<svg xmlns="http://www.w3.org/2000/svg" viewBox="0 0 229.82 53.04"><defs><style>.cls-1{fill:#006450;}</style></defs><g id="Layer_2" data-name="Layer 2"><g id="Layer_1-2" data-name="Layer 1"><path class="cls-1" d="M0,24.3a36.82,36.82,0,0,0,.66-4.62C.83,17.8.92,16,.92,14.27V10.54C.92,8.81.83,7,.66,5.13A36.82,36.82,0,0,0,0,.51L10.09.58l6.39,10.36H17v-.51q0-2.34-.27-5.4A35,35,0,0,0,16.11.51H27.26a34.83,34.83,0,0,0-.67,4.62c-.17,1.88-.25,3.68-.25,5.41V24.3H17.6L10.77,13.15h-.54v.44c0,1.73.1,3.68.29,5.87a41.27,41.27,0,0,0,.63,4.84Z"/><path class="cls-1" d="M41.64,24.81A15.5,15.5,0,0,1,35,23.45a10.62,10.62,0,0,1-4.67-4.16,12.84,12.84,0,0,1-1.73-6.89,12.73,12.73,0,0,1,1.73-6.86A10.68,10.68,0,0,1,35,1.38,15.36,15.36,0,0,1,41.64,0a15.32,15.32,0,0,1,6.58,1.38,10.73,10.73,0,0,1,4.67,4.16,12.82,12.82,0,0,1,1.73,6.86,12.93,12.93,0,0,1-1.73,6.89,10.67,10.67,0,0,1-4.67,4.16A15.46,15.46,0,0,1,41.64,24.81Zm0-7.21A2.7,2.7,0,0,0,43.31,17a3.92,3.92,0,0,0,1.18-1.75,8.1,8.1,0,0,0,.45-2.88,8,8,0,0,0-.45-2.87A3.74,3.74,0,0,0,43.31,7.8a2.75,2.75,0,0,0-1.67-.56,2.8,2.8,0,0,0-1.7.56,3.75,3.75,0,0,0-1.19,1.73,8.29,8.29,0,0,0-.44,2.87,8.35,8.35,0,0,0,.44,2.88A3.93,3.93,0,0,0,39.94,17,2.74,2.74,0,0,0,41.64,17.6Z"/><path class="cls-1" d="M61.23,52.93a15.5,15.5,0,0,1-6.61-1.36A10.62,10.62,0,0,1,50,47.41a12.84,12.84,0,0,1-1.74-6.89A12.73,12.73,0,0,1,50,33.66a10.68,10.68,0,0,1,4.67-4.16,16.45,16.45,0,0,1,13.19,0,10.79,10.79,0,0,1,4.67,4.16,12.82,12.82,0,0,1,1.73,6.86,12.93,12.93,0,0,1-1.73,6.89,10.73,10.73,0,0,1-4.67,4.16A15.46,15.46,0,0,1,61.23,52.93Zm0-7.21a2.7,2.7,0,0,0,1.67-.57,3.92,3.92,0,0,0,1.18-1.75,8.06,8.06,0,0,0,.45-2.88,8,8,0,0,0-.45-2.87,3.74,3.74,0,0,0-1.18-1.73,2.75,2.75,0,0,0-1.67-.56,2.8,2.8,0,0,0-1.7.56,3.75,3.75,0,0,0-1.19,1.73,9.61,9.61,0,0,0,0,5.75,3.93,3.93,0,0,0,1.19,1.75A2.74,2.74,0,0,0,61.23,45.72Z"/><path class="cls-1" d="M88.58,52.93A15.5,15.5,0,0,1,82,51.57a10.62,10.62,0,0,1-4.67-4.16,12.84,12.84,0,0,1-1.73-6.89,12.73,12.73,0,0,1,1.73-6.86A10.68,10.68,0,0,1,82,29.5a16.45,16.45,0,0,1,13.19,0,10.73,10.73,0,0,1,4.67,4.16,12.82,12.82,0,0,1,1.73,6.86,12.93,12.93,0,0,1-1.73,6.89,10.67,10.67,0,0,1-4.67,4.16A15.46,15.46,0,0,1,88.58,52.93Zm0-7.21a2.7,2.7,0,0,0,1.67-.57,3.92,3.92,0,0,0,1.18-1.75,8.06,8.06,0,0,0,.45-2.88,8,8,0,0,0-.45-2.87,3.74,3.74,0,0,0-1.18-1.73,2.75,2.75,0,0,0-1.67-.56,2.8,2.8,0,0,0-1.7.56,3.75,3.75,0,0,0-1.19,1.73,9.61,9.61,0,0,0,0,5.75,3.93,3.93,0,0,0,1.19,1.75A2.74,2.74,0,0,0,88.58,45.72Z"/><path class="cls-1" d="M94.89,24.81a15.5,15.5,0,0,1-6.61-1.36,10.7,10.7,0,0,1-4.68-4.16,12.93,12.93,0,0,1-1.73-6.89A12.82,12.82,0,0,1,83.6,5.54a10.76,10.76,0,0,1,4.68-4.16,16.42,16.42,0,0,1,13.18,0,10.76,10.76,0,0,1,4.68,4.16,12.82,12.82,0,0,1,1.73,6.86,12.93,12.93,0,0,1-1.73,6.89,10.7,10.7,0,0,1-4.68,4.16A15.41,15.41,0,0,1,94.89,24.81Zm0-7.21A2.67,2.67,0,0,0,96.55,17a3.85,3.85,0,0,0,1.19-1.75,8.12,8.12,0,0,0,.44-2.88,8.06,8.06,0,0,0-.44-2.87A3.68,3.68,0,0,0,96.55,7.8a2.72,2.72,0,0,0-1.66-.56,2.78,2.78,0,0,0-1.7.56A3.68,3.68,0,0,0,92,9.53a8.06,8.06,0,0,0-.44,2.87A8.12,8.12,0,0,0,92,15.28,3.85,3.85,0,0,0,93.19,17,2.72,2.72,0,0,0,94.89,17.6Z"/><path class="cls-1" d="M62.81,24.3a36.82,36.82,0,0,0,.66-4.62c.17-1.88.26-3.68.26-5.41V9.89H61.28a10.59,10.59,0,0,0-2.63.31,8.07,8.07,0,0,0-2.43,1.05L57.75.51h21l1.53,10.74a8.79,8.79,0,0,0-2.43-1,10.44,10.44,0,0,0-2.6-.34H73v4.38c0,1.73.08,3.53.25,5.41A34.83,34.83,0,0,0,74,24.3Z"/><path class="cls-1" d="M130,24.81a5.9,5.9,0,0,1-5.61-3.2A24.94,24.94,0,0,1,123,18.22c-.34-1-.64-1.75-.9-2.33a4,4,0,0,0-1-1.43,2.38,2.38,0,0,0-1.6-.56,1.66,1.66,0,0,0-.32,0,1.25,1.25,0,0,0-.29.11v.74c0,1.68.11,3.4.27,5.17a29.94,29.94,0,0,0,.65,4.35H108.64a36.82,36.82,0,0,0,.66-4.62c.17-1.88.26-3.68.26-5.41V10.54c0-1.73-.09-3.53-.26-5.41a36.82,36.82,0,0,0-.66-4.62H124a17.5,17.5,0,0,1,5,.66,7.69,7.69,0,0,1,3.5,2,4.82,4.82,0,0,1,1.29,3.42,4.88,4.88,0,0,1-1.26,3.46,7.42,7.42,0,0,1-3.42,2,17.21,17.21,0,0,1-4.94.64h-.1V13h0a2.76,2.76,0,0,1,.63.07c.22,0,.43.09.65.15l.66.19.95.27c.34.09.68.16,1,.22a6.28,6.28,0,0,0,1.09.08,5.19,5.19,0,0,0,3.43-1.15,7.41,7.41,0,0,0,2.14-3V22.06A4.25,4.25,0,0,1,132.82,24,5.47,5.47,0,0,1,130,24.81ZM122.3,12.13a3.46,3.46,0,0,0,1.07-.15,1.48,1.48,0,0,0,.72-.48,1.39,1.39,0,0,0,0-1.59,1.48,1.48,0,0,0-.72-.48,3.46,3.46,0,0,0-1.07-.15h-3.43v2.85Z"/><path class="cls-1" d="M136.8,24.3a36.82,36.82,0,0,0,.66-4.62c.17-1.88.25-3.68.25-5.41V10.54c0-1.73-.08-3.53-.25-5.41A36.82,36.82,0,0,0,136.8.51h11.14a36.82,36.82,0,0,0-.66,4.62C147.11,7,147,8.81,147,10.54v3.73c0,1.73.09,3.53.26,5.41a36.82,36.82,0,0,0,.66,4.62Z"/><path class="cls-1" d="M162.05,24.81a15.5,15.5,0,0,1-6.61-1.36,10.62,10.62,0,0,1-4.67-4.16A12.84,12.84,0,0,1,149,12.4a12.73,12.73,0,0,1,1.73-6.86,10.68,10.68,0,0,1,4.67-4.16,16.45,16.45,0,0,1,13.19,0,10.73,10.73,0,0,1,4.67,4.16A12.82,12.82,0,0,1,175,12.4a12.93,12.93,0,0,1-1.73,6.89,10.67,10.67,0,0,1-4.67,4.16A15.46,15.46,0,0,1,162.05,24.81Zm0-7.21a2.7,2.7,0,0,0,1.67-.57,3.92,3.92,0,0,0,1.18-1.75,8.1,8.1,0,0,0,.45-2.88,8,8,0,0,0-.45-2.87,3.74,3.74,0,0,0-1.18-1.73,2.75,2.75,0,0,0-1.67-.56,2.8,2.8,0,0,0-1.7.56,3.75,3.75,0,0,0-1.19,1.73,8.29,8.29,0,0,0-.44,2.87,8.35,8.35,0,0,0,.44,2.88A3.93,3.93,0,0,0,160.35,17,2.74,2.74,0,0,0,162.05,17.6Z"/><path class="cls-1" d="M189.5,24.81a16.57,16.57,0,0,1-6.33-1.11,8.78,8.78,0,0,1-4.23-3.5A11.25,11.25,0,0,1,177.41,14v-3.5c0-1.73-.09-3.53-.26-5.41a36.82,36.82,0,0,0-.66-4.62h11.15A34.83,34.83,0,0,0,187,5.13c-.17,1.88-.25,3.68-.25,5.41v.78a7.22,7.22,0,0,0,.29,2.21,2.91,2.91,0,0,0,.9,1.42,2.47,2.47,0,0,0,1.63.51,2.54,2.54,0,0,0,1.65-.51,2.85,2.85,0,0,0,.91-1.42,7.22,7.22,0,0,0,.29-2.21v-.78c0-1.73-.08-3.53-.25-5.41a36.82,36.82,0,0,0-.66-4.62h11.14A36.82,36.82,0,0,0,202,5.13c-.17,1.88-.26,3.68-.26,5.41V14A11.64,11.64,0,0,1,200.31,20a8.7,8.7,0,0,1-4.11,3.63A16.2,16.2,0,0,1,189.5,24.81Z"/><path class="cls-1" d="M216.94,24.81a39.79,39.79,0,0,1-6.24-.58,53,53,0,0,1-6.2-1.32l.41-10.74a13.32,13.32,0,0,0,5.2,2.8,22.36,22.36,0,0,0,6.42.93,19,19,0,0,0,1.94-.08,4.53,4.53,0,0,0,1.37-.32c.35-.16.53-.38.53-.65s-.18-.44-.53-.58A5.74,5.74,0,0,0,218.5,14l-2.34-.18a46.92,46.92,0,0,1-5.54-.58,9.09,9.09,0,0,1-4-1.73,4.7,4.7,0,0,1-1.71-3.95,5.81,5.81,0,0,1,1.65-4.23A9.92,9.92,0,0,1,211.07.82,23.92,23.92,0,0,1,217.65,0a31,31,0,0,1,5.29.48,33.42,33.42,0,0,1,4.63,1.08v10.3a12.73,12.73,0,0,0-4.21-1.92,19.29,19.29,0,0,0-5.3-.76,16,16,0,0,0-1.92.11,4.67,4.67,0,0,0-1.39.38c-.36.17-.53.39-.53.66a.94.94,0,0,0,.64.88,5.56,5.56,0,0,0,1.69.45c.69.09,1.62.17,2.8.23a46,46,0,0,1,5.28.6,8.21,8.21,0,0,1,3.64,1.61,4.34,4.34,0,0,1,1.55,3.61,5.42,5.42,0,0,1-1.67,4.12,9.7,9.7,0,0,1-4.53,2.28A28.31,28.31,0,0,1,216.94,24.81Z"/><path class="cls-1" d="M20,52.42a34.83,34.83,0,0,0,.67-4.62c.17-1.88.25-3.68.25-5.41V38.66c0-1.73-.08-3.53-.25-5.41A34.83,34.83,0,0,0,20,28.63l10.1.07,6.39,10.36H37v-.51q0-2.34-.27-5.4a36.41,36.41,0,0,0-.62-4.52H47.22a36.82,36.82,0,0,0-.66,4.62c-.17,1.88-.26,3.68-.26,5.41V52.42H37.57L30.74,41.27h-.55v.44c0,1.73.1,3.68.29,5.87a46.16,46.16,0,0,0,.63,4.84Z"/><path class="cls-1" d="M117.05,52.93a17.91,17.91,0,0,1-6.86-1.33,12.23,12.23,0,0,1-5.34-4.13,11.4,11.4,0,0,1-2.07-7,11.31,11.31,0,0,1,2.09-7,12.25,12.25,0,0,1,5.37-4.09,18.46,18.46,0,0,1,6.88-1.31,30.62,30.62,0,0,1,5.07.41,18.55,18.55,0,0,1,3.9,1l0,9.89A9.55,9.55,0,0,0,123,37.91a13,13,0,0,0-4-.65,14.74,14.74,0,0,0-3.43.36,5.53,5.53,0,0,0-2.35,1.09,2.46,2.46,0,0,0,.09,3.79,5.75,5.75,0,0,0,2.43,1,18.05,18.05,0,0,0,3.36.29,14.31,14.31,0,0,0,4.8-.8,11.21,11.21,0,0,0,3.67-2.06V51.64a50,50,0,0,1-5,1A42.41,42.41,0,0,1,117.05,52.93Z"/><path class="cls-1" d="M129.19,52.42a36.82,36.82,0,0,0,.66-4.62c.17-1.88.26-3.68.26-5.41V38.66c0-1.73-.09-3.53-.26-5.41a36.82,36.82,0,0,0-.66-4.62h11.15a36.58,36.58,0,0,0-.67,4.62c-.17,1.88-.25,3.68-.25,5.41v.2h5.1v-.2c0-1.73-.09-3.53-.26-5.41a36.82,36.82,0,0,0-.66-4.62h11.15a34.83,34.83,0,0,0-.67,4.62c-.17,1.88-.25,3.68-.25,5.41v3.73c0,1.73.08,3.53.25,5.41a34.83,34.83,0,0,0,.67,4.62H143.6a36.82,36.82,0,0,0,.66-4.62c.17-1.88.26-3.68.26-5.41v-.51h-5.1v.51c0,1.73.08,3.53.25,5.41a36.58,36.58,0,0,0,.67,4.62Z"/><path class="cls-1" d="M178.37,52.93a17.91,17.91,0,0,1-6.86-1.33,12.23,12.23,0,0,1-5.34-4.13,11.4,11.4,0,0,1-2.07-7,11.31,11.31,0,0,1,2.09-7,12.25,12.25,0,0,1,5.37-4.09,18.46,18.46,0,0,1,6.88-1.31,30.62,30.62,0,0,1,5.07.41,18.55,18.55,0,0,1,3.9,1l0,9.89a9.65,9.65,0,0,0-3.09-1.53,13,13,0,0,0-4-.65,14.74,14.74,0,0,0-3.43.36,5.53,5.53,0,0,0-2.35,1.09,2.34,2.34,0,0,0-.85,1.85,2.31,2.31,0,0,0,.94,1.94,5.75,5.75,0,0,0,2.43,1,18,18,0,0,0,3.36.29,14.2,14.2,0,0,0,4.79-.8,11.16,11.16,0,0,0,3.68-2.06V51.64a50,50,0,0,1-5,1A42.41,42.41,0,0,1,178.37,52.93Z"/><path class="cls-1" d="M202.61,46a10.26,10.26,0,0,0,2.77-.85,8.17,8.17,0,0,0,3.48-3.08,9,9,0,0,0,1.29-4.92,9.06,9.06,0,0,0-1.29-4.94,8.09,8.09,0,0,0-3.48-3.07,12.08,12.08,0,0,0-9.76,0,8.09,8.09,0,0,0-3.48,3.07,9.06,9.06,0,0,0-1.29,4.94,9,9,0,0,0,1.29,4.92,8.17,8.17,0,0,0,3.48,3.08,10.3,10.3,0,0,0,2.76.85c-1,0-2.08-.06-3.18-.15a27.85,27.85,0,0,1-3.37-.46V53a27.85,27.85,0,0,1,3.37-.46c1.37-.12,2.68-.17,3.94-.17h2.72c1.26,0,2.57.05,3.94.17a28.14,28.14,0,0,1,3.37.46V45.38a28.14,28.14,0,0,1-3.37.46C204.7,45.93,203.64,46,202.61,46Zm-7.29-8.85,4.09-1.08L200.5,32l1.08,4.09,4.1,1.08-4.1,1.09-1.08,4.09-1.09-4.09Z"/></g></g></svg>