<svg xmlns="http://www.w3.org/2000/svg" viewBox="0 0 96.42 76.72"><defs><style>.cls-1{fill:#fcdc3e;}</style></defs><g id="Layer_2" data-name="Layer 2"><g id="Layer_1-2" data-name="Layer 1"><path class="cls-1" d="M79,52.71c-4,3.21-7.64,6.44-10.32,9.08-3,2.91-3.74,4.15-4,4.6.48-.11,1.85-.62,5.32-2.91,3.14-2.07,7.06-5,11-8.2s7.63-6.43,10.32-9.08c3-2.91,3.74-4.14,4-4.59-.49.1-1.85.61-5.32,2.9C86.87,46.59,83,49.5,79,52.71Z"/><path class="cls-1" d="M45.73,33.43a.48.48,0,0,0-.45,0c-.06,0-6.68,2.67-11.53,0a.52.52,0,0,0-.47,0,.49.49,0,0,0-.27.38c0,.23-.73,5.74,2,8.69a5.66,5.66,0,0,0,4.37,1.78h.38a5.61,5.61,0,0,0,4.1-1.9C46.43,39.38,46,34,46,33.81A.47.47,0,0,0,45.73,33.43Zm-2.65,8.26a4.62,4.62,0,0,1-3.38,1.56,4.82,4.82,0,0,1-4-1.45,5.83,5.83,0,0,1-1.15-2c4.44-3.39,8.59-.46,9.49.26A6.34,6.34,0,0,1,43.08,41.69Z"/><path class="cls-1" d="M96.25,40.88h0a.77.77,0,0,0-.42-.28c-6.73-3.78-12.49-4.71-17.11-2.75A13.23,13.23,0,0,0,73,42.54c-2.82-10.36-5.62-13-7.06-13.62a4.71,4.71,0,0,0-1.88-.35L59.77,24c.79-1.68,3.09-5.56,5.32-5.4A8,8,0,0,1,69.62,21a3.71,3.71,0,0,0-3,2.21,3.35,3.35,0,0,0,.58,3.61A4.2,4.2,0,0,0,68.7,28c0,1.13.37,4.67,2.64,6.69a5.68,5.68,0,0,0,3.94,1.42A7.9,7.9,0,0,0,76.35,36a5.11,5.11,0,0,0,3.89-2.15,6.35,6.35,0,0,0,.78,0c2.18,0,5.45-.79,6.15-3.92,0-.2.08-.39.11-.59.78-.34,3.4-1.66,4.27-4.16a6,6,0,0,0-.79-5.16C88,15.48,86.08,13.4,84,12.91a4.15,4.15,0,0,0-3,.48c-1-1.42-4.75-6.08-10.73-7-4.68-.69-9.56,1.11-14.51,5.34l-2.35-.27h0a9.41,9.41,0,0,0-1.09-.82.5.5,0,0,0,0-.12L49.19.36A.49.49,0,0,0,48.88,0a.52.52,0,0,0-.44.05L38.82,6.42,29.21.08a.52.52,0,0,0-.44,0,.49.49,0,0,0-.31.33l-3.23,10.8-.31.26L13.73,12.71a.51.51,0,0,0-.37.25.51.51,0,0,0,0,.45L17,21.84a12.75,12.75,0,0,0-8.16-2.63A8.17,8.17,0,0,0,2.77,23.1C-.31,27.63-.86,34.83,1.33,41.91L.7,47.41a4,4,0,0,0,0,.59c0,1.63.2,7.16,2.82,9.61A5.8,5.8,0,0,0,7.55,59.2a9,9,0,0,0,4-1,5.9,5.9,0,0,0,3.18,1,7,7,0,0,0,3.47-1,4.62,4.62,0,0,0,1.75-1.76L31.1,76.46a.51.51,0,0,0,.44.26H57a.52.52,0,0,0,.39-.18.47.47,0,0,0,.1-.42,18.75,18.75,0,0,0-2.84-6.25,15.32,15.32,0,0,0-7.45-5.81c2.12-.86,6-2.72,7.17-5.17a3.25,3.25,0,0,0,.12-2.64c-1-2.53-3.86-5.63-6.66-8.21l9.46,2.26h.12a.51.51,0,0,0,.5-.53l-.44-7.44C60,40.27,60.79,40.05,61,40c.45.59,1.42,4.4,2.39,10.12a11.23,11.23,0,0,0-2.82,4.47c-1.63,4.87.78,9.33,3.11,12.23a.7.7,0,0,0,.15.27.78.78,0,0,0,.68.31c.73,0,2.22-.59,5.58-2.77a142.42,142.42,0,0,0,11.63-8.6c4.24-3.43,8.09-6.83,10.84-9.58C96.7,42.3,96.65,41.39,96.25,40.88ZM70.08,7.41c6.48,1,10.28,6.87,10.31,6.93a.52.52,0,0,0,.32.22.51.51,0,0,0,.38-.07,3.37,3.37,0,0,1,2.69-.6c1.75.41,3.58,2.42,6.12,6.71a5.07,5.07,0,0,1,.71,4.31,6.69,6.69,0,0,1-3.22,3.33,9.44,9.44,0,0,0-1.84-5.74.5.5,0,0,0-.78.64,8.39,8.39,0,0,1,1.42,6.64A3.82,3.82,0,0,1,83,32.66a9,9,0,0,1-2.3.24c1.19-3.23-.79-7.71-.88-7.91a.51.51,0,0,0-.67-.25.5.5,0,0,0-.25.66c0,.05,2.18,4.91.61,7.72A4.14,4.14,0,0,1,76.22,35,5.11,5.11,0,0,1,72,33.93c-1.77-1.57-2.18-4.35-2.28-5.62a5.81,5.81,0,0,0,1.17.12,6.71,6.71,0,0,0,1.51-.18,4.29,4.29,0,0,0,.75,1.45.53.53,0,0,0,.4.19.5.5,0,0,0,.39-.82,3.4,3.4,0,0,1-.41-3.41.51.51,0,0,0-.25-.66.49.49,0,0,0-.66.24,4.64,4.64,0,0,0-.38,2,4.22,4.22,0,0,1-4.31-1.05,2.4,2.4,0,0,1-.43-2.55,2.89,2.89,0,0,1,3-1.64l0,.06a.5.5,0,1,0,.79-.62c-.12-.15-2.9-3.63-6.22-3.87a4.52,4.52,0,0,0-3.34,1.61l2.5-5.79a.51.51,0,0,0,0-.45.51.51,0,0,0-.37-.25l-6.81-.79C61.57,8.32,65.93,6.8,70.08,7.41ZM39.59,21.55v-.22l7.59-1.76V32.66C42.92,32.1,39.59,27.33,39.59,21.55ZM25.75,12a8.42,8.42,0,0,1,1.15-.8,6.72,6.72,0,0,1,3.25-.86c4.33,0,7.9,4.34,8.38,9.91l-8.27-1.93h0l-7.67-1.78a11.33,11.33,0,0,1,2.51-4l.49-.43Zm-4,9v-.16l0-.39c0-.06,0-.12,0-.18s0-.24,0-.36a1.37,1.37,0,0,1,0-.19c0-.11,0-.22.05-.33l0-.21c0-.1,0-.21.05-.31s0-.15.05-.23l.06-.27a1.38,1.38,0,0,1,.06-.26,1.74,1.74,0,0,1,.05-.22l.08-.29a.14.14,0,0,0,0-.07l7.37,1.72V32.7c-4.42-.35-7.94-5.21-7.94-11.15C21.7,21.37,21.71,21.18,21.72,21Zm25.84-2.55h0l-7.92,1.84c.48-5.57,4.06-9.91,8.39-9.91,3.29,0,6.14,2.51,7.54,6.15ZM29.23,1.29l9.32,6.15a.5.5,0,0,0,.55,0l9.32-6.15L51,10a7.42,7.42,0,0,0-3-.63c-4.15,0-7.68,3.46-8.94,8.26-1.27-4.8-4.8-8.26-8.94-8.26a7.55,7.55,0,0,0-3.61.93Zm-13,39.06c-.29-1.32-.58-3.48.5-4,.8-.41,2.25.24,3.72,1.21l-.25,4.25a5,5,0,0,0-3.45-1.45Zm4.4,12.11a13.57,13.57,0,0,0-.32-2.16h0l11.52-2.74.1,0,8.2,6.34A.74.74,0,0,1,40,55.15l-4,1.37a9.55,9.55,0,0,0-9.66-4.33,10.66,10.66,0,0,0-5.87,2.92A8.27,8.27,0,0,0,20.65,52.46Zm25.82-5.77h-.16c-.86-.75-1.68-1.43-2.38-2a.51.51,0,0,0-.71.08.5.5,0,0,0,.08.7c7.53,6.12,9.66,9.61,10.25,11.15a2.23,2.23,0,0,1-.09,1.85c-1.29,2.74-7,4.82-7.85,5.13a17.28,17.28,0,0,0-3.11-.43A12.59,12.59,0,0,0,35.08,65a.51.51,0,0,0-.16.69.5.5,0,0,0,.7.16,11.59,11.59,0,0,1,6.84-1.66A14,14,0,0,1,53.8,70.41a18.61,18.61,0,0,1,2.55,5.31H31.83l-11-19.65a9.59,9.59,0,0,1,5.58-2.88,8.54,8.54,0,0,1,4.82.54l.85,4.34-1.69.66a.5.5,0,0,0,.18,1l.18,0,6.56-2.56,2.95-1a1.74,1.74,0,0,0,1.15-1.37,1.72,1.72,0,0,0-.65-1.66l-9.29-7.18a.51.51,0,0,0-.71.09.51.51,0,0,0,.09.7l.08.06L20.79,49.16,20.86,48a5.16,5.16,0,0,0,.69-1.39,4.38,4.38,0,0,0-.41-3.49s0-.06,0-.09l.28-4.74a23.22,23.22,0,0,1,2.38,2,.5.5,0,0,0,.71,0,.5.5,0,0,0,0-.71C24,39,18.88,34.14,16.3,35.44c-1.28.63-1.63,2.32-1.06,5a7.24,7.24,0,0,0-.84.2.5.5,0,0,0-.31.64.5.5,0,0,0,.63.31,6.29,6.29,0,0,1,2-.24A3.86,3.86,0,0,1,20,43.14a3.57,3.57,0,0,1,.59,3.12c-.59,1.88-2.77,3.22-3.88,3.81a9.9,9.9,0,0,0-.78-3,.5.5,0,0,0-.67-.24.49.49,0,0,0-.24.66s1.24,2.71.44,4.64a.51.51,0,0,0,.28.66.58.58,0,0,0,.19,0,.48.48,0,0,0,.46-.31,4.52,4.52,0,0,0,.32-1.34,13.38,13.38,0,0,0,2.42-1.47c.45,1.55,1.41,5.89-1.49,7.55a5.14,5.14,0,0,1-5.83-.08h0l-.18-.13c-2.45-1.84-3.79-5.63-3.3-7.66A.49.49,0,0,0,8,48.8a.51.51,0,0,0-.61.37,7.77,7.77,0,0,0,.58,4.48,10.07,10.07,0,0,0,2.67,3.86c-1.28.58-4.14,1.5-6.43-.63S1.66,49.09,1.66,48c0-.15,0-.31,0-.47l.64-5.61a.5.5,0,0,0,0-.21C.18,34.89.67,28,3.6,23.66a7.2,7.2,0,0,1,5.29-3.45c5.91-.43,10.83,5.41,10.88,5.47a.5.5,0,1,0,.78-.64,18.5,18.5,0,0,0-1.95-1.93.5.5,0,0,0,0-.13l-4-9.35,9.27-1.07a12.66,12.66,0,0,0-2.32,4.18.08.08,0,0,1,0,0,15.17,15.17,0,0,0-.75,4.77c0,6.71,4.24,12.17,9.45,12.17,4.14,0,7.67-3.46,8.94-8.26,1.22,4.62,4.53,8,8.48,8.25H48c5.21,0,9.44-5.46,9.44-12.17a15.17,15.17,0,0,0-.75-4.77s0,0,0-.05a12.71,12.71,0,0,0-2.26-4.1l8.69,1L58.7,23.88a.51.51,0,0,0,.09.54l7.67,8.12-10,5a.51.51,0,0,0-.28.48l.66,11.14Zm15,8.29a10.13,10.13,0,0,1,2.08-3.59l0,.09a.49.49,0,0,0,.49.42h.08a.51.51,0,0,0,.42-.58s-.46-2.87-1-5.75c-1.23-6-1.78-6.3-2.11-6.46s-1-.45-4,2l-.16-2.81,10.29-5.16a.5.5,0,0,0,.27-.36.53.53,0,0,0-.13-.43l-2.49-2.63.39.13c.82.37,3.74,2.43,6.71,13.75l0,.08a15.74,15.74,0,0,0-1.7,3.92.5.5,0,0,0,.36.61h.12a.5.5,0,0,0,.49-.37c0-.07,1.78-6.65,7.54-9.08,4.08-1.73,9.18-1,15.17,2.14A28.59,28.59,0,0,0,90,43.33c-3.26,2.11-7.39,5.17-11.63,8.6s-8.09,6.84-10.84,9.59A23.76,23.76,0,0,0,64,65.63C61.2,61.94,60.36,58.35,61.48,55Zm29.9-8.78c-2.69,2.65-6.35,5.87-10.32,9.08s-7.89,6.13-11,8.2c-3.47,2.29-4.84,2.8-5.32,2.91.21-.45,1-1.69,4-4.6C71.34,59.15,75,55.92,79,52.71s7.89-6.12,11-8.2c3.47-2.29,4.83-2.8,5.32-2.9C95.12,42.06,94.34,43.29,91.38,46.2Z"/></g></g></svg>