<svg xmlns="http://www.w3.org/2000/svg" viewBox="0 0 42.33 43.51"><defs><style>.cls-1{fill:#006450;}</style></defs><g id="Layer_2" data-name="Layer 2"><g id="Layer_1-2" data-name="Layer 1"><path class="cls-1" d="M29.91,43.51H12.43A12.44,12.44,0,0,1,0,31.08V12.43A12.44,12.44,0,0,1,12.43,0H29.91A12.43,12.43,0,0,1,42.33,12.43V31.08A12.44,12.44,0,0,1,29.91,43.51ZM12.43,3.19a9.24,9.24,0,0,0-9.24,9.24V31.08a9.25,9.25,0,0,0,9.24,9.24H29.91a9.26,9.26,0,0,0,9.24-9.24V12.43a9.25,9.25,0,0,0-9.24-9.24Z"/><path class="cls-1" d="M21.17,33.25A11.57,11.57,0,0,1,9.61,21.69a11.74,11.74,0,0,1,3.54-8.38,11.07,11.07,0,0,1,8.07-3.18c7.14.21,11.65,4.77,11.5,11.6A11.59,11.59,0,0,1,21.17,33.25ZM20.9,14a7.19,7.19,0,0,0-5,2.08,7.82,7.82,0,0,0-2.37,5.59,7.67,7.67,0,1,0,15.33,0h0c.1-4.63-2.78-7.48-7.72-7.62Z"/><circle class="cls-1" cx="33" cy="9.81" r="2.7"/></g></g></svg>