<svg id="Layer_1" data-name="Layer 1" xmlns="http://www.w3.org/2000/svg" viewBox="0 0 96.42 76.75"><defs><style>.cls-1{fill:#006450;}</style></defs><g id="Layer_2" data-name="Layer 2"><g id="Layer_1-2" data-name="Layer 1-2"><path class="cls-1" d="M79,52.71c-4,3.21-7.64,6.44-10.32,9.08-3,2.91-3.74,4.15-4,4.6.48-.11,1.85-.62,5.32-2.91,3.14-2.07,7.06-5,11-8.2s7.63-6.43,10.32-9.08c3-2.91,3.74-4.14,4-4.59-.49.1-1.85.61-5.32,2.9C86.87,46.59,83,49.5,79,52.71Z" transform="translate(0 0.03)"/><path class="cls-1" d="M45.73,33.43a.51.51,0,0,0-.45,0c-.06,0-6.68,2.67-11.53,0a.55.55,0,0,0-.47,0,.49.49,0,0,0-.27.38c0,.23-.73,5.74,2,8.69a5.67,5.67,0,0,0,4.37,1.78h.38a5.61,5.61,0,0,0,4.1-1.9C46.43,39.38,46,34,46,33.81A.47.47,0,0,0,45.73,33.43Zm-2.65,8.26a4.61,4.61,0,0,1-3.38,1.56,4.82,4.82,0,0,1-4-1.45,5.87,5.87,0,0,1-1.15-2c4.44-3.39,8.59-.46,9.49.26A6.36,6.36,0,0,1,43.08,41.69Z" transform="translate(0 0.03)"/><path class="cls-1" d="M96.25,40.88h0a.72.72,0,0,0-.42-.28c-6.73-3.78-12.49-4.71-17.11-2.75A13.22,13.22,0,0,0,73,42.54c-2.82-10.36-5.62-13-7.06-13.62a4.86,4.86,0,0,0-1.88-.35L59.77,24c.79-1.68,3.09-5.56,5.32-5.4A8,8,0,0,1,69.62,21a3.71,3.71,0,0,0-3,2.21,3.35,3.35,0,0,0,.58,3.61A4.21,4.21,0,0,0,68.7,28c0,1.13.37,4.67,2.64,6.69a5.64,5.64,0,0,0,3.94,1.42A7.61,7.61,0,0,0,76.35,36a5.12,5.12,0,0,0,3.89-2.15,5.08,5.08,0,0,0,.78,0c2.18,0,5.45-.79,6.15-3.92a4.08,4.08,0,0,1,.11-.59c.78-.34,3.4-1.66,4.27-4.16A6,6,0,0,0,90.76,20C88,15.48,86.08,13.4,84,12.91a4.19,4.19,0,0,0-3,.48c-1-1.42-4.75-6.08-10.73-7-4.68-.69-9.56,1.11-14.51,5.34l-2.35-.27h0a9.7,9.7,0,0,0-1.09-.82v-.12L49.19.36A.47.47,0,0,0,48.88,0a.52.52,0,0,0-.44.05L38.82,6.42,29.21.08a.49.49,0,0,0-.44,0,.49.49,0,0,0-.31.33l-3.23,10.8-.31.26L13.73,12.71a.49.49,0,0,0-.37.25.51.51,0,0,0,0,.45L17,21.84a12.77,12.77,0,0,0-8.16-2.63A8.17,8.17,0,0,0,2.77,23.1C-.31,27.63-.86,34.83,1.33,41.91L.7,47.41A5.81,5.81,0,0,0,.7,48c0,1.63.2,7.16,2.82,9.61a5.81,5.81,0,0,0,4,1.59,9,9,0,0,0,4-1,5.92,5.92,0,0,0,3.18,1,7,7,0,0,0,3.47-1A4.62,4.62,0,0,0,20,56.44l11.15,20a.51.51,0,0,0,.44.26H57a.53.53,0,0,0,.39-.18.46.46,0,0,0,.1-.42,18.73,18.73,0,0,0-2.84-6.25,15.34,15.34,0,0,0-7.45-5.81c2.12-.86,6-2.72,7.17-5.17a3.24,3.24,0,0,0,.12-2.64c-1-2.53-3.86-5.63-6.66-8.21l9.46,2.26h.12a.51.51,0,0,0,.5-.52h0l-.44-7.44C60,40.27,60.79,40.05,61,40c.45.59,1.42,4.4,2.39,10.12a11.23,11.23,0,0,0-2.82,4.47c-1.63,4.87.78,9.33,3.11,12.23a.72.72,0,0,0,.15.27.79.79,0,0,0,.68.31c.73,0,2.22-.59,5.58-2.77A143.59,143.59,0,0,0,81.72,56C86,52.6,89.81,49.2,92.56,46.45,96.7,42.3,96.65,41.39,96.25,40.88ZM70.08,7.41c6.48,1,10.28,6.87,10.31,6.93a.52.52,0,0,0,.32.22.51.51,0,0,0,.38-.07,3.4,3.4,0,0,1,2.69-.6c1.75.41,3.58,2.42,6.12,6.71a5,5,0,0,1,.71,4.31,6.65,6.65,0,0,1-3.22,3.33,9.47,9.47,0,0,0-1.84-5.74.5.5,0,0,0-.78.64h0a8.4,8.4,0,0,1,1.42,6.64A3.82,3.82,0,0,1,83,32.66a8.91,8.91,0,0,1-2.3.24c1.19-3.23-.79-7.71-.88-7.91a.52.52,0,0,0-.67-.25.5.5,0,0,0-.25.66c0,.05,2.18,4.91.61,7.72A4.14,4.14,0,0,1,76.22,35,5.1,5.1,0,0,1,72,33.93c-1.77-1.57-2.18-4.35-2.28-5.62a5.74,5.74,0,0,0,1.17.12,6.37,6.37,0,0,0,1.51-.18,4.18,4.18,0,0,0,.75,1.45.53.53,0,0,0,.4.19.51.51,0,0,0,.51-.49.5.5,0,0,0-.12-.33,3.41,3.41,0,0,1-.41-3.41.51.51,0,0,0-.25-.66.48.48,0,0,0-.65.23h0a4.72,4.72,0,0,0-.38,2,4.22,4.22,0,0,1-4.31-1,2.39,2.39,0,0,1-.43-2.55,2.89,2.89,0,0,1,3-1.64v.06a.51.51,0,0,0,.71.09.52.52,0,0,0,.08-.71c-.12-.15-2.9-3.63-6.22-3.87a4.5,4.5,0,0,0-3.34,1.61l2.5-5.79a.51.51,0,0,0,0-.45.49.49,0,0,0-.37-.25l-6.81-.79C61.57,8.32,65.93,6.8,70.08,7.41ZM39.59,21.55v-.22l7.59-1.76V32.66C42.92,32.1,39.59,27.33,39.59,21.55ZM25.75,12a8.16,8.16,0,0,1,1.15-.8,6.72,6.72,0,0,1,3.25-.86c4.33,0,7.9,4.34,8.38,9.91l-8.27-1.93h0l-7.67-1.78a11.38,11.38,0,0,1,2.51-4l.49-.43Zm-4,9V19.72a.76.76,0,0,1,.05-.33v-.21a.67.67,0,0,1,.05-.31c0-.1,0-.15,0-.23l.06-.27a1.1,1.1,0,0,1,.06-.26,1.74,1.74,0,0,1,.05-.22l.08-.29a.09.09,0,0,0,0-.07l7.37,1.72V32.7c-4.42-.35-7.94-5.21-7.94-11.15a1,1,0,0,0,.14-.55Zm25.84-2.55h0l-7.92,1.84c.48-5.57,4.06-9.91,8.39-9.91,3.29,0,6.14,2.51,7.54,6.15ZM29.23,1.29l9.32,6.15a.5.5,0,0,0,.55,0l9.32-6.15L51,10a7.41,7.41,0,0,0-3-.63c-4.15,0-7.68,3.46-8.94,8.26-1.27-4.8-4.8-8.26-8.94-8.26a7.49,7.49,0,0,0-3.61.93Zm-13,39.06c-.29-1.32-.58-3.48.5-4,.8-.41,2.25.24,3.72,1.21l-.25,4.25a5,5,0,0,0-3.45-1.45Zm4.4,12.11a14.24,14.24,0,0,0-.32-2.16h0l11.52-2.74h.1l8.2,6.34a.75.75,0,0,1,.13,1,.75.75,0,0,1-.26.21l-4,1.37a9.54,9.54,0,0,0-9.66-4.33,10.63,10.63,0,0,0-5.87,2.92,8.43,8.43,0,0,0,.18-2.65Zm25.82-5.77h-.16c-.86-.75-1.68-1.43-2.38-2a.5.5,0,1,0-.63.78c7.53,6.12,9.66,9.61,10.25,11.15a2.22,2.22,0,0,1-.09,1.85c-1.29,2.74-7,4.82-7.85,5.13a17.12,17.12,0,0,0-3.11-.43A12.58,12.58,0,0,0,35.08,65a.51.51,0,0,0-.16.69.5.5,0,0,0,.69.17h0a11.57,11.57,0,0,1,6.84-1.66A14,14,0,0,1,53.8,70.41a18.46,18.46,0,0,1,2.55,5.31H31.83l-11-19.65a9.59,9.59,0,0,1,5.58-2.88,8.55,8.55,0,0,1,4.82.54l.85,4.34-1.69.66a.51.51,0,1,0,.18,1h.18l6.56-2.56,2.95-1a1.74,1.74,0,0,0,1.15-1.37,1.72,1.72,0,0,0-.65-1.66L31.47,46a.51.51,0,0,0-.71.09.51.51,0,0,0,.09.7l.08.06L20.79,49.16,20.86,48a5.16,5.16,0,0,0,.69-1.39,4.36,4.36,0,0,0-.41-3.49V43l.28-4.74a22.69,22.69,0,0,1,2.38,2,.5.5,0,0,0,.71,0h0a.5.5,0,0,0,0-.71h0C24,39,18.88,34.14,16.3,35.44c-1.28.63-1.63,2.32-1.06,5a8.52,8.52,0,0,0-.84.2.5.5,0,0,0-.31.63h0a.5.5,0,0,0,.63.31,6.13,6.13,0,0,1,2-.24A3.85,3.85,0,0,1,20,43.14a3.59,3.59,0,0,1,.59,3.12c-.59,1.88-2.77,3.22-3.88,3.81a9.77,9.77,0,0,0-.78-3,.49.49,0,0,0-.66-.24h0a.49.49,0,0,0-.25.65h0s1.24,2.71.44,4.64a.51.51,0,0,0,.28.66h.19a.49.49,0,0,0,.46-.31,4.77,4.77,0,0,0,.32-1.34,13.24,13.24,0,0,0,2.42-1.47c.45,1.55,1.41,5.89-1.49,7.55a5.15,5.15,0,0,1-5.83-.08h0L11.63,57c-2.45-1.84-3.79-5.63-3.3-7.66A.5.5,0,0,0,8,48.8a.51.51,0,0,0-.61.37A7.83,7.83,0,0,0,8,53.65a10.05,10.05,0,0,0,2.67,3.86c-1.28.58-4.14,1.5-6.43-.63S1.66,49.09,1.66,48v-.47l.64-5.61a.74.74,0,0,0,0-.21C.18,34.89.67,28,3.6,23.66a7.2,7.2,0,0,1,5.29-3.45c5.91-.43,10.83,5.41,10.88,5.47a.5.5,0,1,0,.78-.64,17.77,17.77,0,0,0-1.95-1.93.29.29,0,0,0,0-.13l-4-9.35,9.27-1.07a12.62,12.62,0,0,0-2.32,4.18h0a15.15,15.15,0,0,0-.75,4.77c0,6.71,4.24,12.17,9.45,12.17,4.14,0,7.67-3.46,8.94-8.26,1.22,4.62,4.53,8,8.48,8.25H48c5.21,0,9.44-5.46,9.44-12.17a15.15,15.15,0,0,0-.75-4.77v-.05a12.67,12.67,0,0,0-2.26-4.1l8.69,1L58.7,23.88a.51.51,0,0,0,.09.54l7.67,8.12-10,5a.51.51,0,0,0-.28.48l.66,11.14Zm15,8.29a10.19,10.19,0,0,1,2.08-3.59v.09a.5.5,0,0,0,.49.42h.08a.51.51,0,0,0,.42-.58s-.46-2.87-1-5.75c-1.23-6-1.78-6.3-2.11-6.46s-1-.45-4,2l-.16-2.81,10.29-5.16a.5.5,0,0,0,.27-.36.56.56,0,0,0-.13-.43l-2.49-2.63.39.13c.82.37,3.74,2.43,6.71,13.75v.08a15.89,15.89,0,0,0-1.7,3.92.5.5,0,0,0,.36.61h.12a.5.5,0,0,0,.49-.37c0-.07,1.78-6.65,7.54-9.08,4.08-1.73,9.18-1,15.17,2.14A29,29,0,0,0,90,43.33c-3.26,2.11-7.39,5.17-11.63,8.6s-8.09,6.84-10.84,9.59A23.88,23.88,0,0,0,64,65.63c-2.8-3.69-3.64-7.28-2.52-10.63Zm29.9-8.78C88.66,48.85,85,52.07,81,55.28s-7.89,6.13-11,8.2c-3.47,2.29-4.84,2.8-5.32,2.91.21-.45,1-1.69,4-4.6A130.36,130.36,0,0,1,79,52.71c4-3.21,7.89-6.12,11-8.2,3.47-2.29,4.83-2.8,5.32-2.9-.2.45-1,1.68-3.94,4.59Z" transform="translate(0 0.03)"/></g></g></svg>